<svg xmlns="http://www.w3.org/2000/svg" viewBox="0 0 459.89 225.71">
    <g id="Layer_2" data-name="Layer 2">
        <g id="Layer_1-2" data-name="Layer 1">
            <rect width="44.16" height="225.71"/>
            <path d="M96.18,193.05q-19.09-4.52-31.36-12.15l17.59-39.81a111.31,111.31,0,0,0,25.92,10.76,100.92,100.92,0,0,0,27.54,4.05q11.34,0,16.2-2.19t4.86-6.6q0-5.09-6.36-7.64t-20.95-5.55a236.57,236.57,0,0,1-31.24-8.45,53.33,53.33,0,0,1-21.76-14.81q-9.25-10.3-9.26-27.89A48.07,48.07,0,0,1,75.93,55q8.55-12.5,25.57-19.67t41.31-7.17a150.06,150.06,0,0,1,32.75,3.58,102.83,102.83,0,0,1,28.36,10.54L187.48,81.84q-23.83-12-45.13-12-21.06,0-21.06,10.18,0,4.86,6.25,7.29t20.6,5.21a211,211,0,0,1,31.24,8,54.37,54.37,0,0,1,22.11,14.7q9.38,10.18,9.37,27.77a47.56,47.56,0,0,1-8.56,27.66q-8.56,12.39-25.58,19.67t-41.31,7.29A169.86,169.86,0,0,1,96.18,193.05Z"/>
            <path d="M334.22,108.46h47.45V177a110.39,110.39,0,0,1-33.33,15.27,137.6,137.6,0,0,1-37.26,5.32q-25.93,0-46.53-10.76a80.37,80.37,0,0,1-32.28-30.09q-11.69-19.32-11.69-43.85T232.27,69A79.92,79.92,0,0,1,264.9,38.91q20.94-10.77,47.33-10.76,23.83,0,42.7,8A80.27,80.27,0,0,1,386.3,59.39L351.35,90.17Q336.07,72.35,315,72.35q-18.06,0-28.7,10.88t-10.65,29.63q0,18.28,10.54,29.39t28.12,11.11a51.34,51.34,0,0,0,19.9-3.94Z"/>
            <path d="M407.47,187.73q-8.69-8.44-8.68-21.64t8.68-21.41q8.68-8.22,21.87-8.22t21.87,8.22q8.69,8.22,8.68,21.41t-8.68,21.64q-8.67,8.45-21.87,8.45T407.47,187.73Z"/>
        </g>
    </g>
</svg>
